<?xml version="1.0"?>
<svg xmlns="http://www.w3.org/2000/svg" viewBox="0 0 16 16">
    <path style="line-height:normal;text-indent:0;text-align:start;text-decoration-line:none;text-decoration-style:solid;text-decoration-color:white;text-transform:none;block-progression:tb;isolation:auto;mix-blend-mode:normal;fill:white" d="M 2.5 1 C 1.6774686 1 1 1.6774686 1 2.5 L 1 10.5 C 1 11.322531 1.6774686 12 2.5 12 L 4 12 L 4 12.5 C 4 13.322531 4.6774686 14 5.5 14 L 13.5 14 C 14.322531 14 15 13.322531 15 12.5 L 15 4.5 C 15 3.6774686 14.322531 3 13.5 3 L 12 3 L 12 2.5 C 12 1.6774686 11.322531 1 10.5 1 L 2.5 1 z M 2.5 2 L 10.5 2 C 10.781469 2 11 2.2185314 11 2.5 L 11 10.5 C 11 10.781469 10.781469 11 10.5 11 L 2.5 11 C 2.2185314 11 2 10.781469 2 10.5 L 2 2.5 C 2 2.2185314 2.2185314 2 2.5 2 z M 12 4 L 13.5 4 C 13.781469 4 14 4.2185314 14 4.5 L 14 12.5 C 14 12.781469 13.781469 13 13.5 13 L 5.5 13 C 5.2185314 13 5 12.781469 5 12.5 L 5 12 L 10.5 12 C 11.322531 12 12 11.322531 12 10.5 L 12 4 z" font-weight="400" font-family="sans-serif" white-space="normal" overflow="visible"/>
</svg>
